<?xml version="1.0" encoding="UTF-8"?>
<svg version="1.1" xmlns="http://www.w3.org/2000/svg" width="290" height="54">
<path d="M0 0 C1.47668858 0.0133035 2.95331108 0.03716415 4.4296875 0.0703125 C5.18378906 0.07933594 5.93789062 0.08835937 6.71484375 0.09765625 C8.57826004 0.1212438 10.44151343 0.15711531 12.3046875 0.1953125 C12.6346875 1.5153125 12.9646875 2.8353125 13.3046875 4.1953125 C13.94792969 3.54046875 14.59117187 2.885625 15.25390625 2.2109375 C19.34750702 -0.49366941 22.33919151 -0.26294885 27.1171875 -0.0546875 C28.29958008 -0.02761719 28.29958008 -0.02761719 29.50585938 0 C31.43933011 0.04687202 33.37217035 0.1186084 35.3046875 0.1953125 C36.6246875 2.8353125 37.9446875 5.4753125 39.3046875 8.1953125 C40.6246875 5.5553125 41.9446875 2.9153125 43.3046875 0.1953125 C47.05442656 0.07908311 50.80370214 0.008053 54.5546875 -0.0546875 C55.61816406 -0.08820312 56.68164062 -0.12171875 57.77734375 -0.15625 C58.80214844 -0.16914063 59.82695312 -0.18203125 60.8828125 -0.1953125 C62.29675293 -0.2267334 62.29675293 -0.2267334 63.73925781 -0.25878906 C67.02376625 0.32259519 68.19638216 1.68790409 70.3046875 4.1953125 C70.6965625 3.5353125 71.0884375 2.8753125 71.4921875 2.1953125 C73.3046875 0.1953125 73.3046875 0.1953125 75.9921875 -0.0546875 C76.7553125 0.0278125 77.5184375 0.1103125 78.3046875 0.1953125 C77.87347482 3.21380127 77.35914932 5.11152508 75.6796875 7.6953125 C74.11894798 10.05749104 74.11894798 10.05749104 74.3046875 12.5078125 C75.52396146 15.78461127 77.27195519 18.45360029 79.24609375 21.328125 C80.3046875 23.1953125 80.3046875 23.1953125 80.3046875 26.1953125 C77.22207294 26.3699522 74.14072917 26.47625317 71.0546875 26.5703125 C70.18199219 26.62058594 69.30929687 26.67085937 68.41015625 26.72265625 C65.90528783 26.78001965 63.74612048 26.76784095 61.3046875 26.1953125 C58.6953125 23.171875 58.6953125 23.171875 57.3046875 20.1953125 C56.7478125 21.1853125 56.1909375 22.1753125 55.6171875 23.1953125 C53.3046875 26.1953125 53.3046875 26.1953125 50.5546875 26.5703125 C49.8121875 26.4465625 49.0696875 26.3228125 48.3046875 26.1953125 C48.710763 22.74367071 49.40888359 21.04514755 51.4296875 18.1328125 C53.47842812 15.50393561 53.47842812 15.50393561 53.3046875 13.2578125 C51.79162972 10.13713083 50.08101907 7.17496546 48.3046875 4.1953125 C43.31214801 14.72881438 38.77757746 25.43338207 34.3046875 36.1953125 C32.3246875 36.1953125 30.3446875 36.1953125 28.3046875 36.1953125 C28.57708252 35.58945312 28.84947754 34.98359375 29.13012695 34.359375 C30.5833335 30.57630915 31.68811141 27.62589342 30.61474609 23.62109375 C29.36776279 21.04524173 27.9952754 18.63035348 26.4921875 16.1953125 C25.52483819 14.53009884 24.55986713 12.86350058 23.59765625 11.1953125 C23.1596167 10.4734375 22.72157715 9.7515625 22.27026367 9.0078125 C21.3046875 7.1953125 21.3046875 7.1953125 21.3046875 5.1953125 C17.24010019 7.03972947 17.24010019 7.03972947 14.3046875 10.1953125 C13.59033766 14.17770592 13.41155669 17.95843193 13.375 21.9921875 C13.3046875 25.1953125 13.3046875 25.1953125 12.3046875 26.1953125 C9.64646093 26.32189472 7.02581326 26.38051464 4.3671875 26.3828125 C3.62533203 26.39505859 2.88347656 26.40730469 2.11914062 26.41992188 C0.17955121 26.42519728 -1.7595496 26.31720152 -3.6953125 26.1953125 C-6.22585587 23.66476913 -5.95214479 22.75982368 -5.9609375 19.2578125 C-5.96351563 18.28070313 -5.96609375 17.30359375 -5.96875 16.296875 C-5.96101562 15.27335937 -5.95328125 14.24984375 -5.9453125 13.1953125 C-5.95304688 12.17179687 -5.96078125 11.14828125 -5.96875 10.09375 C-5.96617187 9.11664063 -5.96359375 8.13953125 -5.9609375 7.1328125 C-5.95868164 6.23433594 -5.95642578 5.33585937 -5.95410156 4.41015625 C-5.47579694 0.31659063 -3.91604978 0.20697938 0 0 Z " fill="#6B5A7A" transform="translate(209.6953125,17.8046875)"/>
<path d="M0 0 C1.1127832 -0.01836914 1.1127832 -0.01836914 2.24804688 -0.03710938 C4.18763629 -0.04238478 6.1267371 0.06561098 8.0625 0.1875 C10.85427569 2.97927569 10.37463484 4.81933572 10.4765625 8.7265625 C10.51523437 10.02851563 10.55390625 11.33046875 10.59375 12.671875 C10.62520763 14.05207862 10.65645491 15.43228704 10.6875 16.8125 C10.72567934 18.20054541 10.76473105 19.58856711 10.8046875 20.9765625 C10.89922943 24.38007185 10.98477897 27.78357165 11.0625 31.1875 C13.3725 31.1875 15.6825 31.1875 18.0625 31.1875 C17.7325 32.8375 17.4025 34.4875 17.0625 36.1875 C12.91668113 36.21636751 8.77088784 36.23425327 4.625 36.25 C2.84899414 36.26256836 2.84899414 36.26256836 1.03710938 36.27539062 C-0.08759766 36.27861328 -1.21230469 36.28183594 -2.37109375 36.28515625 C-3.93428345 36.29301147 -3.93428345 36.29301147 -5.52905273 36.30102539 C-7.9375 36.1875 -7.9375 36.1875 -8.9375 35.1875 C-9.03837212 32.67825847 -9.07722032 30.19713616 -9.0703125 27.6875 C-9.07126923 26.93662109 -9.07222595 26.18574219 -9.07321167 25.41210938 C-9.07389338 23.82161373 -9.07203972 22.23111533 -9.06787109 20.640625 C-9.06252267 18.19785345 -9.06781634 15.75526579 -9.07421875 13.3125 C-9.07355797 11.77083293 -9.0722768 10.22916597 -9.0703125 8.6875 C-9.07233673 7.95208984 -9.07436096 7.21667969 -9.07644653 6.45898438 C-9.04169164 -1.00987506 -6.72198737 0.00580984 0 0 Z " fill="#6C5A7A" transform="translate(8.9375,7.8125)"/>
<path d="M0 0 C3.29028458 3.55872271 3.79377494 6.67974748 4.12109375 11.39453125 C3.92467986 15.62059792 2.70588017 18.74826505 0 22 C-5.12191294 25.2137493 -10.10753198 25.76132773 -16 25 C-19.82316018 23.80917962 -22.35371278 22.53028695 -25.4375 20 C-27.84051687 15.38620762 -27.71769531 11.09115109 -27 6 C-25.18183885 1.75762399 -23.34657917 -0.11445775 -19.1875 -1.875 C-12.52908048 -3.94267926 -6.07299731 -3.53818104 0 0 Z M-6 4 C-7.99825961 6.99738941 -8.27550398 7.63347508 -8.25 11 C-8.25515625 11.680625 -8.2603125 12.36125 -8.265625 13.0625 C-8.09917603 15.32416007 -8.09917603 15.32416007 -6 18 C-3.24358584 17.50243908 -3.24358584 17.50243908 -1 16 C-0.8754514 14.35769636 -0.82431476 12.70947724 -0.8125 11.0625 C-0.79832031 10.16660156 -0.78414062 9.27070313 -0.76953125 8.34765625 C-0.76805231 5.80885466 -0.76805231 5.80885466 -3 4 C-3.99 4 -4.98 4 -6 4 Z " fill="#6B5A7A" transform="translate(198,20)"/>
<path d="M0 0 C3.42794364 3.87025895 3.66700736 8.00511039 4 13 C3 14 3 14 0.71484375 14.09765625 C-0.65994141 14.08025391 -0.65994141 14.08025391 -2.0625 14.0625 C-2.98160156 14.05347656 -3.90070313 14.04445313 -4.84765625 14.03515625 C-5.55792969 14.02355469 -6.26820313 14.01195313 -7 14 C-6.34 15.32 -5.68 16.64 -5 18 C-3.02 18 -1.04 18 1 18 C1 19.32 1 20.64 1 22 C-5.32717976 25.30113726 -11.33785904 26.39391715 -18.3125 24.30859375 C-21.88432173 22.73935589 -23.71246312 21.40434874 -26 18.1875 C-27.54535157 13.26169188 -27.62178146 9.66899233 -25.8125 4.8125 C-23.51360664 1.24525168 -21.10614201 -1.15754319 -17.125 -2.75 C-10.85360881 -3.48781073 -5.55183295 -3.10802386 0 0 Z M-6 4 C-6.66 5.98 -7.32 7.96 -8 10 C-5.69 10 -3.38 10 -1 10 C-1.33 8.35 -1.66 6.7 -2 5 C-3.32 4.67 -4.64 4.34 -6 4 Z " fill="#6C5A7A" transform="translate(135,20)"/>
<path d="M0 0 C1.07121094 0.00322266 2.14242187 0.00644531 3.24609375 0.00976562 C4.85291016 -0.0144043 4.85291016 -0.0144043 6.4921875 -0.0390625 C7.51441406 -0.03970703 8.53664062 -0.04035156 9.58984375 -0.04101562 C11.00040039 -0.04548706 11.00040039 -0.04548706 12.43945312 -0.05004883 C13.58124023 0.13424683 13.58124023 0.13424683 14.74609375 0.32226562 C16.98022388 3.67346082 16.98457137 4.74004113 16.94140625 8.64648438 C16.93496094 9.67451172 16.92851562 10.70253906 16.921875 11.76171875 C16.90511719 12.83357422 16.88835937 13.90542969 16.87109375 15.00976562 C16.86207031 16.09322266 16.85304687 17.17667969 16.84375 18.29296875 C16.82016715 20.96962273 16.78725501 23.64583359 16.74609375 26.32226562 C15.09609375 25.99226563 13.44609375 25.66226563 11.74609375 25.32226562 C11.74609375 18.39226563 11.74609375 11.46226563 11.74609375 4.32226562 C10.75609375 4.32226562 9.76609375 4.32226562 8.74609375 4.32226562 C8.75394897 5.26863892 8.75394897 5.26863892 8.76196289 6.23413086 C8.78267201 9.0759991 8.79573441 11.9178515 8.80859375 14.75976562 C8.81697266 15.75298828 8.82535156 16.74621094 8.83398438 17.76953125 C8.83881836 19.18588867 8.83881836 19.18588867 8.84375 20.63085938 C8.85160522 21.94268188 8.85160522 21.94268188 8.85961914 23.28100586 C8.74609375 25.32226562 8.74609375 25.32226562 7.74609375 26.32226562 C5.08786718 26.44884784 2.46721951 26.50746776 -0.19140625 26.50976562 C-0.93326172 26.52201172 -1.67511719 26.53425781 -2.43945312 26.546875 C-4.37904254 26.5521504 -6.31814335 26.44415464 -8.25390625 26.32226562 C-10.78444962 23.79172225 -10.51073854 22.8867768 -10.51953125 19.38476562 C-10.52210938 18.40765625 -10.5246875 17.43054688 -10.52734375 16.42382812 C-10.51960937 15.4003125 -10.511875 14.37679687 -10.50390625 13.32226562 C-10.51164063 12.29875 -10.519375 11.27523438 -10.52734375 10.22070312 C-10.52476562 9.24359375 -10.5221875 8.26648438 -10.51953125 7.25976562 C-10.51727539 6.36128906 -10.51501953 5.4628125 -10.51269531 4.53710938 C-9.83694037 -1.24633291 -4.52761405 0.03140212 0 0 Z " fill="#6C5A7A" transform="translate(151.25390625,17.677734375)"/>
<path d="M0 0 C0 3.96 0 7.92 0 12 C1.65 12 3.3 12 5 12 C5 13.32 5 14.64 5 16 C3.35 16 1.7 16 0 16 C0.33 19.96 0.66 23.92 1 28 C2.32 28 3.64 28 5 28 C5 29.32 5 30.64 5 32 C-1.30404665 34.24143881 -8.86269281 35.62359043 -15.26953125 33.109375 C-17 32 -17 32 -18 30 C-18.07116382 27.62597499 -18.08409085 25.24999323 -18.0625 22.875 C-18.05347656 21.59367187 -18.04445313 20.31234375 -18.03515625 18.9921875 C-18.02355469 18.00476563 -18.01195313 17.01734375 -18 16 C-19.32 15.67 -20.64 15.34 -22 15 C-21.67 14.01 -21.34 13.02 -21 12 C-20.01 12 -19.02 12 -18 12 C-18 9.69 -18 7.38 -18 5 C-15.94175571 4.15621025 -13.87820214 3.32536378 -11.8125 2.5 C-10.66394531 2.0359375 -9.51539062 1.571875 -8.33203125 1.09375 C-5 0 -5 0 0 0 Z " fill="#6C5A7A" transform="translate(101,11)"/>
<path d="M0 0 C0 1.32 0 2.64 0 4 C-1.32 4.33 -2.64 4.66 -4 5 C-4.08636719 6.02480469 -4.17273438 7.04960937 -4.26171875 8.10546875 C-4.40249086 9.46626581 -4.54448269 10.82693708 -4.6875 12.1875 C-4.74099609 12.86103516 -4.79449219 13.53457031 -4.84960938 14.22851562 C-5.27634451 18.03202447 -5.95068794 19.93974757 -8.39453125 22.92578125 C-13.20820608 26.75795716 -18.10294789 26.38304115 -24 26 C-26.44514412 25.5031951 -28.63628668 24.82216116 -31 24 C-31 22.68 -31 21.36 -31 20 C-30.20722656 19.83371094 -29.41445313 19.66742188 -28.59765625 19.49609375 C-25.59619814 18.17109243 -25.59619814 18.17109243 -24.99609375 14.41015625 C-24.78759957 12.96397686 -24.60221802 11.51431701 -24.4375 10.0625 C-23.53895565 2.53469513 -23.53895565 2.53469513 -21.0234375 0.0390625 C-14.13115063 -3.50021995 -7.14156235 -2.00464908 0 0 Z " fill="#6B5A7A" transform="translate(80,19)"/>
<path d="M0 0 C1.12535156 0.00580078 1.12535156 0.00580078 2.2734375 0.01171875 C3.02367187 0.00785156 3.77390625 0.00398438 4.546875 0 C10.14682697 0.01010822 10.14682697 0.01010822 11.2734375 1.13671875 C11.37290203 2.90531068 11.40423967 4.67783326 11.40625 6.44921875 C11.40818359 8.06183594 11.40818359 8.06183594 11.41015625 9.70703125 C11.40628906 10.83882812 11.40242188 11.970625 11.3984375 13.13671875 C11.40423828 14.83441406 11.40423828 14.83441406 11.41015625 16.56640625 C11.40886719 17.64148438 11.40757813 18.7165625 11.40625 19.82421875 C11.40512207 20.81808594 11.40399414 21.81195313 11.40283203 22.8359375 C11.2734375 25.13671875 11.2734375 25.13671875 10.2734375 26.13671875 C7.5961237 26.23653089 4.95039575 26.2755175 2.2734375 26.26171875 C1.14808594 26.26751953 1.14808594 26.26751953 0 26.2734375 C-5.59995197 26.26332928 -5.59995197 26.26332928 -6.7265625 25.13671875 C-6.82602703 23.36812682 -6.85736467 21.59560424 -6.859375 19.82421875 C-6.86066406 18.74914062 -6.86195312 17.6740625 -6.86328125 16.56640625 C-6.85748047 14.86871094 -6.85748047 14.86871094 -6.8515625 13.13671875 C-6.85542969 12.00492188 -6.85929687 10.873125 -6.86328125 9.70703125 C-6.86199219 8.63195312 -6.86070313 7.556875 -6.859375 6.44921875 C-6.85824707 5.45535156 -6.85711914 4.46148437 -6.85595703 3.4375 C-6.60152409 -1.08660572 -3.9078819 0.00705394 0 0 Z " fill="#6C5A7A" transform="translate(35.7265625,17.86328125)"/>
<path d="M0 0 C2.75171298 1.90503206 3.71801879 3.2856476 4.9375 6.375 C5.02358207 9.99044695 3.94320784 11.98467749 2 15 C-0.52460691 17.00227445 -1.76046431 17.00998065 -5 16.875 C-8.48347614 15.85898613 -9.8334681 14.8887092 -12 12 C-13.37749054 8.51035729 -13.11114829 7.27522434 -11.6875 3.75 C-8.86256657 -0.85359522 -5.06545823 -0.72220395 0 0 Z " fill="#6B5A7A" transform="translate(42,0)"/>
</svg>
